<?xml version="1.0" encoding="utf-8"?>
<!-- Generator: Adobe Illustrator 22.0.1, SVG Export Plug-In . SVG Version: 6.00 Build 0)  -->
<svg version="1.1" id="Calque_1" xmlns="http://www.w3.org/2000/svg" xmlns:xlink="http://www.w3.org/1999/xlink" x="0px" y="0px"
	 viewBox="0 0 700 700" style="enable-background:new 0 0 700 700;" xml:space="preserve">
<style type="text/css">
	.st0{fill:#FFFFFF;}
</style>
<path class="st0" d="M481.3,142.9H218.7c-23.3,0-45.7,9.3-62.2,25.8s-25.8,38.9-25.8,62.2v262.7c0,23.3,9.3,45.7,25.8,62.2
	s38.9,25.8,62.2,25.8h262.7c23.3,0,45.7-9.3,62.2-25.8s25.8-38.9,25.8-62.2V230.9c0-23.3-9.3-45.7-25.8-62.2
	S504.7,142.9,481.3,142.9z M534,493.5c0,14-5.6,27.4-15.5,37.3c-9.9,9.9-23.3,15.5-37.3,15.5H218.7c-14,0-27.4-5.6-37.3-15.5
	c-9.9-9.9-15.5-23.3-15.5-37.3V230.9c0-14,5.6-27.4,15.5-37.3c9.9-9.9,23.3-15.5,37.3-15.5h262.7c14,0,27.4,5.6,37.3,15.5
	c9.9,9.9,15.5,23.3,15.5,37.3v262.6H534z M350,272.4c-23.9,0-46.8,9.4-63.6,26.2c-16.9,16.8-26.4,39.7-26.4,63.6s9.4,46.7,26.3,63.6
	c16.9,16.9,39.7,26.4,63.6,26.4c23.9,0,46.7-9.4,63.6-26.3c16.9-16.9,26.4-39.7,26.4-63.6c0-23.8-9.4-46.7-26.3-63.5
	C396.7,281.9,373.8,272.4,350,272.4L350,272.4z M350,416.8L350,416.8c-14.5,0.1-28.5-5.7-38.8-15.9c-10.3-10.3-16.1-24.2-16.1-38.7
	s5.8-28.5,16-38.8c10.3-10.3,24.2-16,38.8-16c14.5,0,28.5,5.8,38.7,16.1c10.3,10.3,16,24.2,15.9,38.8c-0.1,14.4-5.9,28.2-16.1,38.3
	c-10.2,10.2-24,15.9-38.4,15.9V416.8z M500.8,225.1L500.8,225.1c0,4.7-1.9,9.1-5.2,12.4c-3.3,3.3-7.8,5.2-12.4,5.2h-17.6
	c-6.3,0-12.1-3.4-15.2-8.8c-3.1-5.4-3.1-12.2,0-17.6c3.1-5.4,9-8.8,15.2-8.8h17.6c4.7,0,9.1,1.9,12.4,5.2
	C499,215.9,500.8,220.4,500.8,225.1L500.8,225.1z"/>
</svg>
