<?xml version="1.0" encoding="utf-8"?>
<!-- Generator: Adobe Illustrator 22.0.1, SVG Export Plug-In . SVG Version: 6.00 Build 0)  -->
<svg version="1.1" id="Calque_1" xmlns="http://www.w3.org/2000/svg" xmlns:xlink="http://www.w3.org/1999/xlink" x="0px" y="0px"
	 viewBox="0 0 700 700" style="enable-background:new 0 0 700 700;" xml:space="preserve">
<style type="text/css">
	.st0{fill:#FFFFFF;}
</style>
<g>
	<path class="st0" d="M383.6,289.9L597,182.1c-3.7-10.1-9.9-21-19.9-29.8c-15.3-15.3-35.6-24.3-57-25.6l0,0l-0.1,0
		c-1.7-0.1-3.4-0.2-5-0.2l0.4,0.2l-263-0.2c-23.3,0-45.7,9.3-62.2,25.8c-10.1,10.1-17.5,22.5-21.7,35.9L383.6,289.9z"/>
	<path class="st0" d="M383.6,324.9L164.2,216.8v260.3c0,23.3,9.3,45.7,25.8,62.2c16.5,16.5,38.9,25.8,62.2,25.8h262.7
		c23.3,0,45.7-9.3,62.2-25.8c16.5-16.5,25.8-38.9,25.8-62.2V214.5c0,0,0-0.1,0-0.3L383.6,324.9z"/>
</g>
</svg>
